<?xml version="1.0" encoding="UTF-8"?>
<svg width="256" height="256" viewBox="0 0 256 256" xmlns="http://www.w3.org/2000/svg">
  <defs>
    <linearGradient id="gradient" x1="0%" y1="0%" x2="100%" y2="100%">
      <stop offset="0%" stop-color="#2563eb"/>
      <stop offset="100%" stop-color="#10b981"/>
    </linearGradient>
    
    <filter id="shadow" x="-20%" y="-20%" width="140%" height="140%">
      <feDropShadow dx="0" dy="4" stdDeviation="8" flood-color="#2563eb" flood-opacity="0.3"/>
    </filter>
  </defs>
  
  <rect width="256" height="256" rx="40" fill="url(#gradient)" filter="url(#shadow)"/>
  
  <!-- Bridge icon -->
  <g transform="translate(40, 60)">
    <!-- Bridge base -->
    <path d="M0 80 L176 80" stroke="white" stroke-width="12" stroke-linecap="round"/>
    
    <!-- Bridge pillars -->
    <rect x="30" y="50" width="8" height="30" fill="white"/>
    <rect x="80" y="40" width="8" height="40" fill="white"/>
    <rect x="130" y="50" width="8" height="30" fill="white"/>
    
    <!-- Bridge cables -->
    <path d="M20 20 L40 50" stroke="white" stroke-width="4" stroke-linecap="round"/>
    <path d="M70 10 L80 40" stroke="white" stroke-width="4" stroke-linecap="round"/>
    <path d="M120 20 L130 50" stroke="white" stroke-width="4" stroke-linecap="round"/>
    <path d="M156 20 L136 50" stroke="white" stroke-width="4" stroke-linecap="round"/>
    <path d="M106 10 L96 40" stroke="white" stroke-width="4" stroke-linecap="round"/>
    <path d="M56 20 L36 50" stroke="white" stroke-width="4" stroke-linecap="round"/>
    
    <!-- Connection dots -->
    <circle cx="20" cy="20" r="8" fill="white"/>
    <circle cx="70" cy="10" r="8" fill="white"/>
    <circle cx="120" cy="20" r="8" fill="white"/>
    <circle cx="156" cy="20" r="8" fill="white"/>
    <circle cx="106" cy="10" r="8" fill="white"/>
    <circle cx="56" cy="20" r="8" fill="white"/>
    
    <!-- Data flow -->
    <g class="data-flow">
      <circle cx="10" cy="80" r="4" fill="#fbbf24">
        <animate attributeName="cy" from="80" to="20" dur="1.5s" repeatCount="indefinite"/>
      </circle>
      <circle cx="40" cy="80" r="4" fill="#60a5fa">
        <animate attributeName="cy" from="80" to="20" dur="1.7s" repeatCount="indefinite" begin="0.2s"/>
      </circle>
      <circle cx="166" cy="20" r="4" fill="#10b981">
        <animate attributeName="cy" from="20" to="80" dur="1.5s" repeatCount="indefinite"/>
      </circle>
      <circle cx="136" cy="20" r="4" fill="#f87171">
        <animate attributeName="cy" from="20" to="80" dur="1.7s" repeatCount="indefinite" begin="0.3s"/>
      </circle>
    </g>
  </g>
  
  <!-- Text -->
  <text x="128" y="180" text-anchor="middle" font-family="Arial, sans-serif" font-size="24" font-weight="bold" fill="white">
    Local Bridge
  </text>
  <text x="128" y="210" text-anchor="middle" font-family="Arial, sans-serif" font-size="16" fill="white" opacity="0.9">
    P2P
  </text>
</svg>
